<svg class="border shadow-md" viewBox="0 0 1348.5511111111111 758.5600000000001" style="width: 1348.55px; height: 758.56px;" xmlns="http://www.w3.org/2000/svg" preserveAspectRatio="none"><rect class="bg" id="bg" x="0" y="0" width="1348.5511111111111" height="758.5600000000001" fill="#ffffff"/><path d="M 0 -75.85600000000001 L 0 -75.86&#10;                L 89.90 -10.86&#10;                L 269.7102222222222 -75.86 L 269.7102222222222 -75.86&#10;                L 359.61 -37.93&#10;                L 539.4204444444445 -75.86 L 539.4204444444445 -75.86&#10;                L 664.42 -37.93&#10;                L 809.1306666666667 -75.86 L 809.1306666666667 -75.86&#10;                L 988.13 -12.86&#10;                L 1078.840888888889 -75.86 L 1078.840888888889 -75.86&#10;                L 1168.74 -27.86&#10;                L 1348.5511111111111 -75.86 L 1348.5511111111111 -75.86&#10;                L 1457.55 -24.86&#10;                L 1618.2613333333334 -75.86  V 758.56 H 0 V -75.86 Z" fill="#471AA0"/><path d="M 0 0 L 0 0.00&#10;                L 184.00 37.93&#10;                L 269.7102222222222 0.00 L 269.7102222222222 0.00&#10;                L 426.71 45.00&#10;                L 539.4204444444445 0.00 L 539.4204444444445 0.00&#10;                L 629.32 58.00&#10;                L 809.1306666666667 0.00 L 809.1306666666667 0.00&#10;                L 899.03 49.00&#10;                L 1078.840888888889 0.00 L 1078.840888888889 0.00&#10;                L 1261.84 67.00&#10;                L 1348.5511111111111 0.00 L 1348.5511111111111 0.00&#10;                L 1527.55 37.93&#10;                L 1618.2613333333334 0.00  V 758.56 H 0 V 0.00 Z" fill="#411a99"/><path d="M 0 75.85600000000001 L 0 75.86&#10;                L 130.00 113.78&#10;                L 269.7102222222222 75.86 L 269.7102222222222 75.86&#10;                L 435.71 149.86&#10;                L 539.4204444444445 75.86 L 539.4204444444445 75.86&#10;                L 629.32 128.86&#10;                L 809.1306666666667 75.86 L 809.1306666666667 75.86&#10;                L 995.13 113.78&#10;                L 1078.840888888889 75.86 L 1078.840888888889 75.86&#10;                L 1168.74 113.78&#10;                L 1348.5511111111111 75.86 L 1348.5511111111111 75.86&#10;                L 1438.45 120.86&#10;                L 1618.2613333333334 75.86  V 758.56 H 0 V 75.86 Z" fill="#3b1a92"/><path d="M 0 151.71200000000002 L 0 151.71&#10;                L 89.90 202.71&#10;                L 269.7102222222222 151.71 L 269.7102222222222 151.71&#10;                L 359.61 219.71&#10;                L 539.4204444444445 151.71 L 539.4204444444445 151.71&#10;                L 730.42 190.71&#10;                L 809.1306666666667 151.71 L 809.1306666666667 151.71&#10;                L 986.13 218.71&#10;                L 1078.840888888889 151.71 L 1078.840888888889 151.71&#10;                L 1168.74 193.71&#10;                L 1348.5511111111111 151.71 L 1348.5511111111111 151.71&#10;                L 1438.45 189.64&#10;                L 1618.2613333333334 151.71  V 758.56 H 0 V 151.71 Z" fill="#351a8b"/><path d="M 0 227.56800000000004 L 0 227.57&#10;                L 178.00 265.50&#10;                L 269.7102222222222 227.57 L 269.7102222222222 227.57&#10;                L 435.71 278.57&#10;                L 539.4204444444445 227.57 L 539.4204444444445 227.57&#10;                L 629.32 265.50&#10;                L 809.1306666666667 227.57 L 809.1306666666667 227.57&#10;                L 980.13 301.57&#10;                L 1078.840888888889 227.57 L 1078.840888888889 227.57&#10;                L 1201.84 265.50&#10;                L 1348.5511111111111 227.57 L 1348.5511111111111 227.57&#10;                L 1438.45 276.57&#10;                L 1618.2613333333334 227.57  V 758.56 H 0 V 227.57 Z" fill="#2f1a84"/><path d="M 0 303.42400000000004 L 0 303.42&#10;                L 89.90 341.35&#10;                L 269.7102222222222 303.42 L 269.7102222222222 303.42&#10;                L 438.71 341.35&#10;                L 539.4204444444445 303.42 L 539.4204444444445 303.42&#10;                L 645.42 341.35&#10;                L 809.1306666666667 303.42 L 809.1306666666667 303.42&#10;                L 956.13 356.42&#10;                L 1078.840888888889 303.42 L 1078.840888888889 303.42&#10;                L 1215.84 349.42&#10;                L 1348.5511111111111 303.42 L 1348.5511111111111 303.42&#10;                L 1544.55 352.42&#10;                L 1618.2613333333334 303.42  V 758.56 H 0 V 303.42 Z" fill="#291a7d"/><path d="M 0 379.28000000000003 L 0 379.28&#10;                L 199.00 417.21&#10;                L 269.7102222222222 379.28 L 269.7102222222222 379.28&#10;                L 459.71 430.28&#10;                L 539.4204444444445 379.28 L 539.4204444444445 379.28&#10;                L 707.42 417.21&#10;                L 809.1306666666667 379.28 L 809.1306666666667 379.28&#10;                L 899.03 450.28&#10;                L 1078.840888888889 379.28 L 1078.840888888889 379.28&#10;                L 1169.84 417.21&#10;                L 1348.5511111111111 379.28 L 1348.5511111111111 379.28&#10;                L 1438.45 417.21&#10;                L 1618.2613333333334 379.28  V 758.56 H 0 V 379.28 Z" fill="#231a76"/><path d="M 0 455.1360000000001 L 0 455.14&#10;                L 200.00 529.14&#10;                L 269.7102222222222 455.14 L 269.7102222222222 455.14&#10;                L 414.71 504.14&#10;                L 539.4204444444445 455.14 L 539.4204444444445 455.14&#10;                L 629.32 493.06&#10;                L 809.1306666666667 455.14 L 809.1306666666667 455.14&#10;                L 971.13 501.14&#10;                L 1078.840888888889 455.14 L 1078.840888888889 455.14&#10;                L 1205.84 493.06&#10;                L 1348.5511111111111 455.14 L 1348.5511111111111 455.14&#10;                L 1438.45 517.14&#10;                L 1618.2613333333334 455.14  V 758.56 H 0 V 455.14 Z" fill="#1d1a6f"/><path d="M 0 530.9920000000001 L 0 530.99&#10;                L 89.90 605.99&#10;                L 269.7102222222222 530.99 L 269.7102222222222 530.99&#10;                L 359.61 568.92&#10;                L 539.4204444444445 530.99 L 539.4204444444445 530.99&#10;                L 707.42 568.99&#10;                L 809.1306666666667 530.99 L 809.1306666666667 530.99&#10;                L 989.13 568.92&#10;                L 1078.840888888889 530.99 L 1078.840888888889 530.99&#10;                L 1168.74 601.99&#10;                L 1348.5511111111111 530.99 L 1348.5511111111111 530.99&#10;                L 1438.45 584.99&#10;                L 1618.2613333333334 530.99  V 758.56 H 0 V 530.99 Z" fill="#171a68"/><path d="M 0 606.8480000000001 L 0 606.85&#10;                L 89.90 644.78&#10;                L 269.7102222222222 606.85 L 269.7102222222222 606.85&#10;                L 442.71 644.78&#10;                L 539.4204444444445 606.85 L 539.4204444444445 606.85&#10;                L 629.32 649.85&#10;                L 809.1306666666667 606.85 L 809.1306666666667 606.85&#10;                L 974.13 644.78&#10;                L 1078.840888888889 606.85 L 1078.840888888889 606.85&#10;                L 1174.84 670.85&#10;                L 1348.5511111111111 606.85 L 1348.5511111111111 606.85&#10;                L 1438.45 644.78&#10;                L 1618.2613333333334 606.85  V 758.56 H 0 V 606.85 Z" fill="#111a61"/><path d="M 0 682.7040000000001 L 0 682.70&#10;                L 195.00 720.63&#10;                L 269.7102222222222 682.70 L 269.7102222222222 682.70&#10;                L 359.61 720.63&#10;                L 539.4204444444445 682.70 L 539.4204444444445 682.70&#10;                L 726.42 720.63&#10;                L 809.1306666666667 682.70 L 809.1306666666667 682.70&#10;                L 931.13 737.70&#10;                L 1078.840888888889 682.70 L 1078.840888888889 682.70&#10;                L 1168.74 732.70&#10;                L 1348.5511111111111 682.70 L 1348.5511111111111 682.70&#10;                L 1438.45 720.63&#10;                L 1618.2613333333334 682.70  V 758.56 H 0 V 682.70 Z" fill="#0b1a5a"/></svg>